<svg width="163" height="21" viewBox="0 0 163 21" fill="none" xmlns="http://www.w3.org/2000/svg">
<path d="M14.121 15.498V19.845H0V0.513H5.049V15.498H14.121Z" fill="#09090B"/>
<path d="M29.9751 19.845H25.3041C25.1601 19.395 25.0791 18.954 25.0611 18.522C24.1971 19.656 22.6671 20.223 20.4711 20.223C18.8331 20.223 17.5731 19.791 16.6911 18.927C15.9171 18.171 15.5301 17.172 15.5301 15.93C15.5301 14.22 16.2861 13.014 17.7981 12.312C18.4461 12.024 19.7781 11.691 21.7941 11.313L24.9801 10.719V9.882C24.9441 8.856 24.2331 8.343 22.8471 8.343C22.0911 8.343 21.5331 8.478 21.1731 8.748C20.8311 9 20.6061 9.459 20.4981 10.125H16.1511C16.3131 7.011 18.5631 5.454 22.9011 5.454C25.2051 5.454 26.9331 5.868 28.0851 6.696C28.6251 7.11 28.9941 7.578 29.1921 8.1C29.3901 8.604 29.4891 9.378 29.4891 10.422C29.4891 10.602 29.4801 11.16 29.4621 12.096V12.393L29.4351 14.715C29.4351 15.345 29.4351 15.768 29.4351 15.984C29.4351 16.2 29.4261 16.542 29.4081 17.01C29.4081 17.262 29.4081 17.46 29.4081 17.604C29.4081 18.612 29.5971 19.359 29.9751 19.845ZM25.0341 13.446L22.9281 13.905C21.8301 14.157 21.1011 14.409 20.7411 14.661C20.3811 14.913 20.2011 15.291 20.2011 15.795C20.2011 16.893 20.8221 17.442 22.0641 17.442C23.1081 17.442 23.9181 17.073 24.4941 16.335C24.8181 15.939 24.9891 15.309 25.0071 14.445L25.0341 13.446Z" fill="#09090B"/>
<path d="M40.7727 5.832V8.856H37.4517V14.634C37.4517 15.93 38.0367 16.578 39.2067 16.578C39.8907 16.578 40.4307 16.443 40.8267 16.173L41.6367 19.467C40.7547 19.845 39.4677 20.034 37.7757 20.034C35.6877 20.034 34.2927 19.584 33.5907 18.684C33.2847 18.288 33.0867 17.856 32.9967 17.388C32.9067 16.92 32.8617 16.146 32.8617 15.066V8.856H30.5127V5.832H32.8617V2.862L37.4517 0.458999V5.832H40.7727Z" fill="#09090B"/>
<path d="M50.9241 5.832V8.856H47.6031V14.634C47.6031 15.93 48.1881 16.578 49.3581 16.578C50.0421 16.578 50.5821 16.443 50.9781 16.173L51.7881 19.467C50.9061 19.845 49.6191 20.034 47.9271 20.034C45.8391 20.034 44.4441 19.584 43.7421 18.684C43.4361 18.288 43.2381 17.856 43.1481 17.388C43.0581 16.92 43.0131 16.146 43.0131 15.066V8.856H40.6641V5.832H43.0131V2.862L47.6031 0.458999V5.832H50.9241Z" fill="#09090B"/>
<path d="M57.2145 5.832V19.845H52.6245V5.832H57.2145ZM54.9195 0C55.4955 0 55.9905 0.207 56.4045 0.621C56.8185 1.017 57.0255 1.512 57.0255 2.106C57.0255 2.682 56.8185 3.177 56.4045 3.591C55.9905 4.005 55.4955 4.212 54.9195 4.212C54.3255 4.212 53.8215 4.005 53.4075 3.591C53.0115 3.177 52.8135 2.682 52.8135 2.106C52.8135 1.512 53.0115 1.017 53.4075 0.621C53.8215 0.207 54.3255 0 54.9195 0Z" fill="#09090B"/>
<path d="M72.3914 9.774H68.1524C68.0804 9.234 67.8644 8.856 67.5044 8.64C67.1624 8.406 66.5954 8.289 65.8034 8.289C64.5794 8.289 63.9674 8.667 63.9674 9.423C63.9674 9.819 64.1564 10.107 64.5344 10.287C64.9304 10.467 65.8304 10.692 67.2344 10.962C69.2684 11.358 70.6904 11.889 71.5004 12.555C72.3284 13.203 72.7424 14.148 72.7424 15.39C72.7424 17.01 72.0674 18.252 70.7174 19.116C69.5294 19.854 67.9544 20.223 65.9924 20.223C63.5084 20.223 61.6724 19.638 60.4844 18.468C59.9084 17.892 59.5304 17.442 59.3504 17.118C59.1884 16.776 59.0804 16.227 59.0264 15.471H63.5354C63.6074 16.119 63.8234 16.578 64.1834 16.848C64.5614 17.1 65.1824 17.226 66.0464 17.226C67.4864 17.226 68.2064 16.749 68.2064 15.795C68.2064 15.381 68.0354 15.084 67.6934 14.904C67.3514 14.706 66.5414 14.463 65.2634 14.175C63.2654 13.743 61.9064 13.329 61.1864 12.933C60.0344 12.285 59.4584 11.241 59.4584 9.801C59.4584 8.397 60.0164 7.326 61.1324 6.588C62.2484 5.832 63.8324 5.454 65.8844 5.454C68.4224 5.454 70.2314 6.057 71.3114 7.263C71.9594 7.965 72.3194 8.802 72.3914 9.774Z" fill="#09090B"/>
<path d="M88.9403 15.552C88.7243 16.38 88.3103 17.145 87.6983 17.847C86.3123 19.431 84.3953 20.223 81.9473 20.223C79.7333 20.223 77.9423 19.611 76.5743 18.387C75.0443 17.019 74.2793 15.21 74.2793 12.96C74.2793 10.602 75.0713 8.712 76.6553 7.29C78.0233 6.066 79.7243 5.454 81.7583 5.454C84.2243 5.454 86.1233 6.264 87.4553 7.884C88.6253 9.306 89.2103 11.169 89.2103 13.473C89.2103 13.635 89.2103 13.779 89.2103 13.905H78.7883C78.8243 14.913 79.1213 15.705 79.6793 16.281C80.2373 16.839 80.9933 17.118 81.9473 17.118C83.1173 17.118 84.0083 16.596 84.6203 15.552H88.9403ZM84.7013 11.286C84.4673 9.468 83.5043 8.559 81.8123 8.559C80.1023 8.559 79.1123 9.468 78.8423 11.286H84.7013Z" fill="#09090B"/>
<path d="M112.386 5.832L108.012 19.845H103.341L101.964 14.499C101.64 13.257 101.343 11.709 101.073 9.855C100.767 11.799 100.47 13.347 100.182 14.499L98.8588 19.845H94.1878L89.7868 5.832H94.5388L95.7808 10.476C96.1588 11.88 96.5188 13.653 96.8608 15.795C97.2208 13.545 97.5718 11.709 97.9138 10.287L98.9668 5.832H103.233L104.421 10.773C104.817 12.375 105.141 14.049 105.393 15.795C105.699 13.779 106.023 12.132 106.365 10.854L107.688 5.832H112.386Z" fill="#09090B"/>
<path d="M120.438 20.223C118.08 20.223 116.208 19.449 114.822 17.901C113.616 16.551 113.013 14.859 113.013 12.825C113.013 10.485 113.787 8.622 115.335 7.236C116.685 6.048 118.377 5.454 120.411 5.454C122.787 5.454 124.668 6.219 126.054 7.749C127.242 9.063 127.836 10.746 127.836 12.798C127.836 15.156 127.062 17.028 125.514 18.414C124.164 19.62 122.472 20.223 120.438 20.223ZM120.384 8.802C119.52 8.802 118.854 9.153 118.386 9.855C117.918 10.557 117.684 11.547 117.684 12.825C117.684 15.525 118.602 16.875 120.438 16.875C122.274 16.875 123.192 15.516 123.192 12.798C123.192 10.134 122.256 8.802 120.384 8.802Z" fill="#09090B"/>
<path d="M140.24 5.751L140.213 9.531C139.547 9.333 138.917 9.234 138.323 9.234C135.983 9.234 134.813 10.737 134.813 13.743V19.845H130.223V5.832H134.651V8.235C135.191 6.381 136.694 5.454 139.16 5.454C139.448 5.454 139.808 5.553 140.24 5.751Z" fill="#09090B"/>
<path d="M156.263 5.832L151.106 11.07L156.965 19.845H151.457L147.974 14.175L146.678 15.363V19.845H142.088V0.513H146.678V10.611C147.038 10.071 147.371 9.639 147.677 9.315L150.944 5.832H156.263Z" fill="#09090B"/>
<path d="M160.168 15.768C160.762 15.768 161.257 15.975 161.653 16.389C162.067 16.785 162.274 17.271 162.274 17.847C162.274 18.441 162.067 18.945 161.653 19.359C161.257 19.773 160.762 19.98 160.168 19.98C159.592 19.98 159.097 19.773 158.683 19.359C158.269 18.945 158.062 18.441 158.062 17.847C158.062 17.271 158.269 16.785 158.683 16.389C159.097 15.975 159.592 15.768 160.168 15.768Z" fill="#09090B"/>
</svg>
